<svg version="1" xmlns="http://www.w3.org/2000/svg" width="933.333" height="933.333" viewBox="0 0 700.000000 700.000000"><path d="M332.5 18c-9.3 9.3-17.4 17-18 17-.5 0-10.2-5.9-21.5-13-18.8-11.9-20.6-12.8-21.8-11.2-.7.9-6.8 10.4-13.4 20.9-6.6 10.6-12.3 19.3-12.6 19.3-.3 0-10.9-3.6-23.5-8s-23.2-7.9-23.4-7.6c-.2.2-4 10.6-8.4 23.2s-8.2 23-8.3 23.2c-.2.1-11.2-1-24.4-2.5-13.3-1.5-24.4-2.4-24.8-2-.3.3-1.7 10.4-3 22.4-1.3 12-2.7 22.9-3.1 24.3-.8 2.4-1.2 2.5-24.6 5.1-13.1 1.4-24.1 2.9-24.4 3.3-.4.4.6 11.5 2.1 24.7 1.5 13.3 2.6 24.3 2.4 24.4-.2.2-10.6 4-23.2 8.4s-23 8.2-23.3 8.4c-.2.3 3.2 10.7 7.7 23.2 4.4 12.6 8 23.1 8 23.5 0 .4-9.5 6.7-21 13.9-13.7 8.6-20.8 13.7-20.3 14.4.4.7 6 9.7 12.6 20.2 6.6 10.4 12.2 19.6 12.5 20.3.3.9-6.4 8.3-16.9 18.8L.5 350l17.3 17.3C27.2 376.8 35 385 35 385.5c0 .6-5.8 10.2-12.9 21.5-7.1 11.3-12.8 20.7-12.6 21 .2.3 9.6 6.4 20.9 13.5 11.3 7.1 20.6 13.2 20.6 13.6 0 .4-3.6 11-8 23.5s-7.7 23.1-7.3 23.4c.5.4 10.9 4.2 23.3 8.5 12.4 4.2 22.6 7.9 22.8 8 .2.2-.9 10.7-2.3 23.4-1.5 12.7-2.5 23.8-2.3 24.8.3 1.5 3.6 2.1 24.1 4.4 13.1 1.4 24.1 2.9 24.4 3.3.4.3 1.9 11.5 3.4 24.7 1.6 13.3 2.9 24.2 3.1 24.4.2.1 11.3-1.1 24.8-2.6 13.4-1.6 24.5-2.7 24.6-2.6.2.1 3.9 10.5 8.2 23 4.4 12.6 8.2 23.1 8.5 23.3.3.3 11-3.1 23.8-7.6 12.8-4.4 23.5-7.7 23.9-7.3.4.4 6.2 9.7 13 20.6 6.7 10.8 12.6 19.9 13 20.2.4.2 9.9-5.3 21.1-12.4 11.2-7.1 20.7-12.7 21.2-12.4.4.2.7 1.7.7 3.3 0 9.6 8.9 21.9 19.8 27.2 5.9 3 7.6 3.3 15.2 3.3s9.3-.3 15.2-3.3c10.7-5.3 18.2-15.3 19.5-26.1.3-2.8.7-5.1 1-5.1.2 0 9.6 5.9 21 13 16.4 10.3 20.9 12.8 21.9 11.8.6-.7 6.4-9.9 12.9-20.3 6.5-10.5 12.1-19.4 12.5-19.8.4-.4 11.1 2.9 23.9 7.3 12.8 4.5 23.5 7.9 23.8 7.6.3-.2 4.1-10.7 8.5-23.3 4.3-12.5 8-22.9 8.2-23 .1-.1 11.2 1 24.6 2.6 13.5 1.5 24.6 2.7 24.8 2.6.2-.2 1.5-11.1 3.1-24.4 1.5-13.2 3-24.4 3.4-24.7.3-.4 11.3-1.9 24.4-3.3 20.5-2.3 23.8-2.9 24.1-4.4.2-1-.8-12.1-2.3-24.8-1.4-12.7-2.5-23.2-2.3-23.4.2-.1 10.4-3.8 22.8-8 12.4-4.3 22.8-8.1 23.3-8.5.4-.3-2.9-10.9-7.3-23.4-4.4-12.5-8-23.1-8-23.5 0-.4 8.9-6.3 19.8-13.1 10.8-6.8 20.2-12.8 20.9-13.4.8-.8-2.1-6.2-11.8-21.6-7.1-11.3-12.9-20.9-12.9-21.5 0-.5 7.8-8.7 17.2-18.2l17.3-17.3-17.4-17.4c-10.5-10.5-17.2-17.9-16.9-18.8.3-.7 5.9-9.9 12.5-20.3 6.6-10.5 12.2-19.5 12.6-20.2.5-.7-6.8-5.8-20.3-14.3-11.5-7.3-21-13.5-21-13.9 0-.3 3.6-10.9 8-23.5s7.9-23.1 7.7-23.3c-.3-.2-10.7-4-23.3-8.4-12.6-4.4-23-8.2-23.2-8.3-.2-.2.9-11.2 2.4-24.5 1.6-13.2 2.5-24.3 2.1-24.7-.3-.4-11.3-1.9-24.4-3.3-23.4-2.6-23.8-2.7-24.6-5.1-.4-1.4-1.8-12.3-3.1-24.3s-2.7-22.1-3-22.4c-.4-.4-11.5.5-24.8 2-13.2 1.5-24.2 2.6-24.4 2.5-.1-.2-3.9-10.6-8.3-23.2s-8.2-23-8.4-23.2c-.2-.3-10.8 3.2-23.4 7.6-12.6 4.4-23.2 8-23.5 8-.3 0-6-8.7-12.6-19.3-6.6-10.5-12.7-20-13.4-20.9-1.2-1.6-3-.7-21.8 11.2-11.3 7.1-21 13-21.5 13-.6 0-8.7-7.7-18-17-9.3-9.4-17.2-17-17.5-17-.3 0-8.2 7.6-17.5 17zm-78.8 265.5c16.4 3.1 32.1 9.6 46.8 19.3 4.2 2.8 15.5 13 28.2 25.6l21.3 21 20.2-20c22-21.7 29.6-27.6 46.2-35.5 69-32.9 152.2 5.9 172.2 80.5 9.9 37.1 1.8 75.1-22.9 107.7-3.1 4.1-44.9 46.7-93 94.8l-87.4 87.3-4.9-3.7c-18.1-13.9-45.6-13.7-61.7.5-1.9 1.6-3.9 3-4.4 3-.4 0-41.2-40.4-90.4-89.8-81.3-81.4-90.2-90.6-96.2-99.8-14.5-22-20.7-42.6-20.7-69 0-20.5 3.6-36.6 12-53.9 11.7-24.2 32.6-45.4 56.5-57.3 12.4-6.2 29.2-11 44-12.6 7.1-.7 25.8.3 34.2 1.9z"/><path d="M272.7 424.4c-22.8 8.5-25 39.3-3.5 50 13.6 6.8 30.8.6 37.1-13.4 2.6-5.6 2.7-15.8.3-21.3-2.3-5.1-8.1-11.4-13-13.9-5.2-2.7-15.7-3.4-20.9-1.4zM297 441c3.6 3.6 2.1 10.2-2.7 12.1-3.5 1.3-7.7-.4-9.2-3.7-1.6-3.5-1.4-4.8 1-7.8 2.6-3.3 7.9-3.6 10.9-.6zM410.9 424.3c-6.3 2.4-10.3 5.1-13.6 9.5-3.8 5.1-5.3 9.8-5.3 17.2.1 24.2 31.6 35.3 47.4 16.8 14.4-16.8 3.4-43-18.7-44.4-3.8-.3-7.6.1-9.8.9zm23.4 16.4c.8 1 1.9 3 2.2 4.5.6 2.2.1 3.3-2.4 5.9-2.5 2.5-3.7 3-5.9 2.5-5.8-1.4-8.2-8.6-4.2-12.6 2.5-2.5 8.1-2.6 10.3-.3z"/></svg>