<svg width="2048" height="450" clip-rule="evenodd" fill-rule="evenodd" stroke-linejoin="round" stroke-miterlimit="2" version="1.1" viewBox="0 0 2048 450" xmlns="http://www.w3.org/2000/svg">
<g fill="#6c757d" fill-rule="nonzero">
<path d="m1062.3 106.46v69.131c0 2.2072 0.2588 6.4911 0.7885 12.864 0.5298 6.3631 0.9518 10.59 1.2732 12.698h-2.0617c-12.613-17.041-30.63-25.562-54.052-25.562-22.782 0-40.453 7.9443-53.013 23.822-12.564 15.888-18.839 37.99-18.839 66.296 0 28.515 6.2545 50.556 18.76 66.125 12.497 15.57 30.097 23.356 52.775 23.356 24.055 0 42.182-8.7791 54.369-26.357h1.2693l4.2886 23.205h23.049v-245.58zm-523.25 14.826v230.74h29.253v-107.64h119.22v107.64h29.249v-230.74h-29.249v97.543h-119.22v-97.543zm973.26 0.01v230.73h64.702c39.105 0 69.117-10.072 90.056-30.215 20.93-20.143 31.395-49.274 31.395-87.363 0-35.982-10.074-63.831-30.203-83.557-20.148-19.736-48.279-29.598-84.41-29.598zm29.251 24.786h38.155c29.452 0 51.482 7.5464 66.042 22.639 14.571 15.102 21.862 37.324 21.862 66.684 0 61.136-31.475 91.699-94.424 91.699h-31.636zm269.06 29.498c-25.646 0-45.565 7.8659-59.765 23.595-14.2 15.729-21.301 37.691-21.301 65.898 0 18.095 3.2748 33.983 9.8541 47.654 6.5693 13.691 15.952 24.179 28.139 31.486 12.177 7.3176 26.178 10.977 41.97 10.977 25.426 0 45.343-7.9439 59.754-23.832 14.42-15.888 21.622-37.98 21.622-66.286 0-27.57-7.2307-49.375-21.691-65.422-14.46-16.047-33.998-24.071-58.582-24.071zm-974.65 0.0114c-23.633 0-42.384 8.2313-56.267 24.696-13.886 16.465-20.826 38.587-20.826 66.366 0 27.57 7.4404 49.215 22.331 64.944 14.892 15.729 35.421 23.593 61.6 23.593 11.549 0 21.56-0.84515 30.051-2.5254 8.471-1.6803 17.528-4.5731 27.18-8.6793v-24.937c-11.233 4.7425-21.038 7.9148-29.412 9.5454-8.3738 1.6405-17.22 2.4451-26.545 2.4451-17.488 0-31.004-5.0889-40.534-15.3-9.5425-10.211-14.573-25.154-15.099-44.83h119.53v-17.202c0-23.981-6.5096-43.01-19.541-57.048-13.043-14.049-30.522-21.067-52.465-21.067zm364.96 0c-22.147 0-39.61 8.0425-52.378 24.149-12.772 16.097-19.156 38.09-19.156 65.969 0 28.405 6.3388 50.428 18.999 66.047 12.66 15.629 30.289 23.434 52.85 23.434 24.272 0 42.285-8.6805 54.048-26.04h1.2808l-0.9558 21.306v6.781c0 15.262-4.3151 27.202-12.952 35.832-8.6452 8.62-20.384 12.946-35.216 12.946-25.971 0-47.426-4.5338-64.383-13.571v26.199c16.427 7.3574 37.356 11.035 62.792 11.035 26.709 0 46.391-6.2536 59.059-18.781 12.66-12.517 18.993-31.19 18.993-56.026v-176.13h-22.732l-3.8193 23.037h-1.7424c-12.826-17.449-31.048-26.187-54.686-26.187zm198.04 0c-23.637 0-42.386 8.2313-56.273 24.696-13.882 16.465-20.822 38.587-20.822 66.366 0 27.57 7.4452 49.215 22.337 64.944 14.883 15.729 35.417 23.593 61.6 23.593 11.552 0 21.555-0.84515 30.037-2.5254 8.482-1.6803 17.536-4.5731 27.189-8.6793v-24.937c-11.246 4.7425-21.041 7.9148-29.412 9.5454-8.3819 1.6405-17.225 2.4451-26.551 2.4451-17.488 0-30.997-5.0889-40.536-15.3-9.5334-10.211-14.566-25.154-15.1-44.83h119.54v-17.202c0-23.981-6.5198-43.01-19.558-57.048-13.028-14.049-30.512-21.067-52.452-21.067zm603.22 0c-26.167 0-46.334 7.8544-60.484 23.583-14.14 15.729-21.22 38.118-21.22 67.16 0 28.614 6.9999 50.587 20.98 65.888 13.99 15.311 33.557 22.968 58.673 22.968 17.905 0 32.897-3.1023 44.974-9.3064v-25.254c-14.831 6.7211-29.933 10.102-45.305 10.102-16.423 0-28.82-5.5472-37.192-16.663-8.3819-11.096-12.558-27.113-12.558-48.052 0-21.774 4.1761-38.158 12.558-49.164 8.3719-10.986 21.359-16.485 38.944-16.485 10.385 0 22.943 2.7331 37.674 8.2014l8.7522-23.671c-5.4077-2.7342-12.267-4.9722-20.599-6.7122-8.3217-1.7399-16.715-2.5942-25.197-2.5942zm-1166.5 23.195c13.344 0 23.683 4.2158 30.993 12.627 7.3153 8.4212 11.075 20.729 11.287 36.925h-88.862c1.4811-15.57 6.1954-27.72 14.145-36.449 7.9612-8.7394 18.756-13.103 32.438-13.103zm563 0c13.351 0 23.685 4.2158 30.995 12.627 7.3204 8.4212 11.065 20.729 11.285 36.925h-88.858c1.4811-15.57 6.1955-27.72 14.145-36.449 7.9483-8.7394 18.76-13.103 32.434-13.103zm-386.44 0.31735c17.375 1e-5 30.117 5.1309 38.228 15.391 8.1074 10.251 12.164 27.441 12.164 51.522v5.2095c0 21.466-4.0062 36.906-12 46.322-8.0033 9.4154-20.7 14.128-38.07 14.128-15.054 0-26.58-5.517-34.578-16.573-8.0073-11.046-12.006-27.303-12.006-48.769 0-21.565 4.0277-38.159 12.081-49.791 8.0533-11.633 19.449-17.439 34.182-17.439zm797.6 0.29823c16.864 0 29.653 5.5078 38.405 16.504 8.7424 10.996 13.118 27.382 13.118 49.166 0 21.774-4.3565 38.328-13.039 49.633-8.7023 11.314-21.36 16.961-37.993 16.961-16.854 0-29.592-5.6466-38.234-16.961-8.6322-11.304-12.958-27.859-12.958-49.633 0-43.766 16.904-65.67 50.701-65.67zm-604.91 0.0114c17.9 0 30.88 5.2686 38.934 15.778 8.0614 10.529 12.093 27.372 12.093 50.518v6.781c0 20.829-4.0049 35.962-12.004 45.377-8.0033 9.4154-20.801 14.128-38.388 14.128-15.476 0-27.109-5.6275-34.895-16.892-7.786-11.255-11.679-27.61-11.679-49.086 0-21.356 3.989-37.79 12-49.314 7.9942-11.523 19.311-17.29 33.939-17.29z"/>
<path d="m226.09-3.8809-23.215 23.225-27.799-17.473-17.467 27.807-30.988-10.85-10.842 31-32.627-3.6777-3.6758 32.637-32.623 3.6777 3.6758 32.635-30.992 10.85 10.844 31-27.799 17.473 17.469 27.814-23.219 23.225 23.217 23.229-17.467 27.811 27.799 17.473-10.844 31 30.992 10.848-3.6758 32.633 32.625 3.6797 3.6738 32.637 32.627-3.6758 10.844 30.996 30.988-10.842 17.469 27.807 27.797-17.475 14.979 14.844-125.3-125.28c-15.886-14.833-25.83-35.953-25.83-59.41 0-44.888 36.376-81.277 81.248-81.277 24.365 0 46.21 10.744 61.102 27.74l16.926 16.934 20.701-20.711 0.01 0.0117c14.677-14.541 34.866-23.527 57.154-23.527 44.873 0 81.248 36.388 81.248 81.277l4e-3 -6e-3c0 24.722-12.148 46.397-28.463 61.758l-127.3 127.43 19.955-19.771 27.797 17.473 17.467-27.812 30.992 10.85 10.842-31 32.627 3.6758 3.6738-32.639 32.627-3.6758-3.6777-32.637 30.992-10.85-10.844-31.002 27.797-17.473-17.469-27.807 23.217-23.227-23.217-23.225 17.465-27.807-27.797-17.475 10.844-31.004-30.988-10.846 3.6738-32.639-32.623-3.6758-3.6777-32.639-32.625 3.6758-10.844-31-30.987 10.848-17.471-27.809-27.801 17.475z"/>
</g>
<path d="m226.07 454.65-0.0784-229.52" fill="none" stroke-width="3.2413"/>
<g fill-rule="nonzero">
<path d="m249.27 431.56c-5.9481-5.9722-14.167-9.6635-23.24-9.6635-9.076 0-17.292 3.6913-23.241 9.6635 0.095 12.759 10.462 23.074 23.24 23.074s23.146-10.318 23.241-23.074" fill="#6c757d" stroke-width="2.1063"/>
<path d="m198.88 291.01c0 9.8148-7.9498 17.768-17.762 17.768-9.8072 0-17.758-7.9537-17.758-17.768 0-9.8148 7.9511-17.768 17.758-17.768 9.8124 0 17.762 7.9537 17.762 17.768" fill="#6c757d"/>
<path d="m192.79 288.35c0 2.7222-2.2047 4.9197-4.921 4.9197-2.7175 0-4.9235-2.1975-4.9235-4.9197 0-2.7191 2.206-4.9259 4.9235-4.9259 2.7163 0 4.921 2.2068 4.921 4.9259" fill="#fffffa" stroke-width="2.1063"/>
<path d="m288.94 291.01c0 9.8148-7.9508 17.768-17.762 17.768-9.8081 0-17.761-7.9537-17.761-17.768 0-9.8148 7.9529-17.768 17.761-17.768 9.8112 0 17.762 7.9537 17.762 17.768" fill="#6c757d"/>
<path d="m282.86 288.35c0 2.7222-2.206 4.9197-4.921 4.9197-2.7181 0-4.9241-2.1975-4.9241-4.9197 0-2.7191 2.206-4.9259 4.9241-4.9259 2.715 0 4.921 2.2068 4.921 4.9259" fill="#fffffa" stroke-width="2.1063"/>
</g>
</svg>
