<svg width="1024" height="1024" clip-rule="evenodd" fill-rule="evenodd" stroke-linejoin="round" stroke-miterlimit="2" version="1.1" viewBox="0 0 1024 1024" xmlns="http://www.w3.org/2000/svg"><linearGradient id="a" x2="1" gradientTransform="matrix(137.81 -289.5 289.39 137.86 356.4 825.23)" gradientUnits="userSpaceOnUse"><stop stop-color="#fcca8c" offset="0"/><stop stop-color="#dca055" offset="1"/></linearGradient><path d="m972.15 564.05 51.849-51.874-51.849-51.865 39.006-62.101-62.081-39.024 24.219-69.235-69.206-24.223 8.2063-72.888-72.858-8.2107-8.2132-72.891-72.858 8.2107-24.219-69.234-69.199 24.225-39.02-62.104-62.086 39.025-51.844-51.865-51.844 51.868-62.084-39.021-39.007 62.101-69.207-24.228-24.214 69.232-72.865-8.2134-8.2077 72.885-72.859 8.2114 8.2111 72.885-69.215 24.228 24.216 69.23-62.081 39.021 39.013 62.116-51.855 51.868 51.849 51.874-39.008 62.109 62.081 39.02-24.216 69.231 69.213 24.228-8.2084 72.877 72.859 8.2162 8.2077 72.884 72.865-8.2093 24.214 69.224 69.204-24.214 39.011 62.104 62.079-39.027 51.849 51.386 51.849-51.372 62.081 39.02 39.006-62.111 69.213 24.228 24.212-69.231 72.865 8.2093 8.2063-72.891 72.865-8.2093-8.2132-72.884 69.213-24.228-24.219-69.238 62.081-39.02z" fill="#9b1b01"/><path d="m867.17 594.17c0-100.25-81.236-181.51-181.45-181.51-49.775 0-94.865 20.066-127.64 52.54l-0.0227-0.0234-46.231 46.25-37.801-37.815c-33.257-37.956-82.043-61.951-136.46-61.951-100.21 0-181.45 81.268-181.45 181.51 0 52.385 22.207 99.552 57.686 132.68l298.2 298.15 291.61-291.9c36.436-34.305 63.563-82.713 63.563-137.92" fill="#fcca8c"/><path d="m511.82 511.43-37.801-37.815c-33.257-37.956-82.043-61.951-136.46-61.951-100.21 0-181.45 81.268-181.45 181.51 0 52.385 22.207 99.552 57.686 132.68l298.2 298.15" fill="url(#a)"/><path d="m512 1024-0.17502-512.57" fill="none"/><path d="m563.8 972.46c-13.284-13.338-31.638-21.581-51.901-21.581-20.269 0-38.617 8.2438-51.904 21.581 0.21222 28.495 23.364 51.53 51.901 51.53 28.537 0 51.691-23.042 51.904-51.53" fill="#010007"/><path d="m451.28 658.58c0 21.919-17.754 39.682-39.668 39.682-21.902 0-39.659-17.763-39.659-39.682 0-21.919 17.757-39.682 39.659-39.682 21.914 0 39.668 17.763 39.668 39.682" fill="#010007"/><path d="m437.67 652.63c0 6.0794-4.9238 10.987-10.99 10.987-6.0689 0-10.995-4.9076-10.995-10.987 0-6.0725 4.9266-11.001 10.995-11.001 6.0662 0 10.99 4.9283 10.99 11.001" fill="#fffffa"/><path d="m652.44 658.58c0 21.919-17.756 39.682-39.667 39.682-21.904 0-39.665-17.763-39.665-39.682 0-21.919 17.761-39.682 39.665-39.682 21.911 0 39.667 17.763 39.667 39.682" fill="#010007"/><path d="m638.83 652.63c0 6.0794-4.9265 10.987-10.99 10.987-6.0703 0-10.997-4.9076-10.997-10.987 0-6.0725 4.9266-11.001 10.997-11.001 6.0634 0 10.99 4.9283 10.99 11.001" fill="#fffffa"/></svg>
