<svg width="1024" height="1024" clip-rule="evenodd" fill-rule="evenodd" stroke-linejoin="round" stroke-miterlimit="2" version="1.1" viewBox="0 0 1024 1024" xml:space="preserve" xmlns="http://www.w3.org/2000/svg"><g transform="matrix(.68903 0 0 .68928 -98.363 -98.397)" stroke-width="1.4511"><path d="m1553.7 961.08 75.25-75.258-75.25-75.246 56.61-90.096-90.1-56.616 35.15-100.45-100.44-35.142 11.91-105.75-105.74-11.912-11.92-105.75-105.74 11.912-35.15-100.44-100.43 35.145-56.63-90.1-90.107 56.617-75.242-75.246-75.242 75.25-90.104-56.612-56.612 90.096-100.44-35.15-35.142 100.44-105.75-11.916-11.912 105.74-105.74 11.913 11.917 105.74-100.45 35.15 35.145 100.44-90.1 56.612 56.621 90.117-75.258 75.25 75.25 75.258-56.613 90.107 90.1 56.61-35.145 100.44 100.45 35.15-11.913 105.73 105.74 11.92 11.912 105.74 105.75-11.91 35.142 100.43 100.44-35.13 56.617 90.1 90.096-56.62 75.25 74.55 75.25-74.53 90.099 56.61 56.61-90.11 100.45 35.15 35.14-100.44 105.75 11.91 11.91-105.75 105.75-11.91-11.92-105.74 100.45-35.15-35.15-100.45 90.1-56.61z" fill-rule="nonzero"/><path d="m1401.3 1004.8c0-145.44-117.9-263.34-263.34-263.34-72.24 0-137.68 29.112-185.25 76.225l-0.033-0.034-67.096 67.1-54.862-54.862c-48.267-55.067-119.07-89.879-198.04-89.879-145.44 0-263.34 117.9-263.34 263.34 0 76 32.23 144.43 83.721 192.49l432.78 432.55 423.22-423.49c52.88-49.77 92.25-120 92.25-200.1" fill="#fff" fill-rule="nonzero"/><path d="m885.83 1628.4-0.254-743.64" fill="none"/><path d="m961.01 1553.6c-19.279-19.35-45.917-31.31-75.325-31.31-29.417 0-56.046 11.96-75.329 31.31 0.308 41.34 33.908 74.76 75.325 74.76 41.416 0 75.02-33.43 75.329-74.76"/><path d="m797.71 1098.2c0 31.8-25.767 57.57-57.571 57.57-31.787 0-57.558-25.77-57.558-57.57s25.771-57.57 57.558-57.57c31.804 0 57.571 25.77 57.571 57.57"/><path d="m777.96 1089.6c0 8.82-7.146 15.94-15.95 15.94-8.808 0-15.958-7.12-15.958-15.94 0-8.81 7.15-15.96 15.958-15.96 8.804 0 15.95 7.15 15.95 15.96" fill="#fffffa"/><path d="m1089.6 1098.2c0 31.8-25.77 57.57-57.57 57.57-31.79 0-57.567-25.77-57.567-57.57s25.777-57.57 57.567-57.57c31.8 0 57.57 25.77 57.57 57.57"/><path d="m1069.9 1089.6c0 8.82-7.15 15.94-15.95 15.94-8.81 0-15.96-7.12-15.96-15.94 0-8.81 7.15-15.96 15.96-15.96 8.8 0 15.95 7.15 15.95 15.96" fill="#fffffa"/></g></svg>
