<svg width="2048" height="450" clip-rule="evenodd" fill-rule="evenodd" stroke-linejoin="round" stroke-miterlimit="2" version="1.1" viewBox="0 0 2048 450" xmlns="http://www.w3.org/2000/svg">
<defs>
<linearGradient id="a-3" x2="1" gradientTransform="matrix(137.81 -289.5 289.39 137.86 -1297.2 480.75)" gradientUnits="userSpaceOnUse">
<stop stop-color="#fcca8c" offset="0"/>
<stop stop-color="#dca055" offset="1"/>
</linearGradient>
</defs>
<path d="m1062.3 106.46v69.131c0 2.2072 0.2588 6.4911 0.7885 12.864 0.5298 6.3631 0.9518 10.59 1.2732 12.698h-2.0617c-12.613-17.041-30.63-25.562-54.052-25.562-22.782 0-40.453 7.9443-53.013 23.822-12.564 15.888-18.839 37.99-18.839 66.296 0 28.515 6.2545 50.556 18.76 66.125 12.497 15.57 30.097 23.356 52.775 23.356 24.055 0 42.182-8.7791 54.369-26.357h1.2693l4.2886 23.205h23.049v-245.58zm-523.25 14.826v230.74h29.253v-107.64h119.22v107.64h29.249v-230.74h-29.249v97.543h-119.22v-97.543zm973.26 0.01v230.73h64.702c39.105 0 69.117-10.072 90.056-30.215 20.93-20.143 31.395-49.274 31.395-87.363 0-35.982-10.074-63.831-30.203-83.557-20.148-19.736-48.279-29.598-84.41-29.598zm29.251 24.786h38.155c29.452 0 51.482 7.5464 66.042 22.639 14.571 15.102 21.862 37.324 21.862 66.684 0 61.136-31.475 91.699-94.424 91.699h-31.636zm269.06 29.498c-25.646 0-45.565 7.8659-59.765 23.595-14.2 15.729-21.301 37.691-21.301 65.898 0 18.095 3.2748 33.983 9.8541 47.654 6.5693 13.691 15.952 24.179 28.139 31.486 12.177 7.3176 26.178 10.977 41.97 10.977 25.426 0 45.343-7.9439 59.754-23.832 14.42-15.888 21.622-37.98 21.622-66.286 0-27.57-7.2307-49.375-21.691-65.422-14.46-16.047-33.998-24.071-58.582-24.071zm-974.65 0.0114c-23.633 0-42.384 8.2313-56.267 24.696-13.886 16.465-20.826 38.587-20.826 66.366 0 27.57 7.4404 49.215 22.331 64.944 14.892 15.729 35.421 23.593 61.6 23.593 11.549 0 21.56-0.84515 30.051-2.5254 8.471-1.6803 17.528-4.5731 27.18-8.6793v-24.937c-11.233 4.7425-21.038 7.9148-29.412 9.5454-8.3738 1.6405-17.22 2.4451-26.545 2.4451-17.488 0-31.004-5.0889-40.534-15.3-9.5425-10.211-14.573-25.154-15.099-44.83h119.53v-17.202c0-23.981-6.5096-43.01-19.541-57.048-13.043-14.049-30.522-21.067-52.465-21.067zm364.96 0c-22.147 0-39.61 8.0425-52.378 24.149-12.772 16.097-19.156 38.09-19.156 65.969 0 28.405 6.3388 50.428 18.999 66.047 12.66 15.629 30.289 23.434 52.85 23.434 24.272 0 42.285-8.6805 54.048-26.04h1.2808l-0.9558 21.306v6.781c0 15.262-4.3151 27.202-12.952 35.832-8.6452 8.62-20.384 12.946-35.216 12.946-25.971 0-47.426-4.5338-64.383-13.571v26.199c16.427 7.3574 37.356 11.035 62.792 11.035 26.709 0 46.391-6.2536 59.059-18.781 12.66-12.517 18.993-31.19 18.993-56.026v-176.13h-22.732l-3.8193 23.037h-1.7424c-12.826-17.449-31.048-26.187-54.686-26.187zm198.04 0c-23.637 0-42.386 8.2313-56.273 24.696-13.882 16.465-20.822 38.587-20.822 66.366 0 27.57 7.4452 49.215 22.337 64.944 14.883 15.729 35.417 23.593 61.6 23.593 11.552 0 21.555-0.84515 30.037-2.5254 8.482-1.6803 17.536-4.5731 27.189-8.6793v-24.937c-11.246 4.7425-21.041 7.9148-29.412 9.5454-8.3819 1.6405-17.225 2.4451-26.551 2.4451-17.488 0-30.997-5.0889-40.536-15.3-9.5334-10.211-14.566-25.154-15.1-44.83h119.54v-17.202c0-23.981-6.5198-43.01-19.558-57.048-13.028-14.049-30.512-21.067-52.452-21.067zm603.22 0c-26.167 0-46.334 7.8544-60.484 23.583-14.14 15.729-21.22 38.118-21.22 67.16 0 28.614 6.9999 50.587 20.98 65.888 13.99 15.311 33.557 22.968 58.673 22.968 17.905 0 32.897-3.1023 44.974-9.3064v-25.254c-14.831 6.7211-29.933 10.102-45.305 10.102-16.423 0-28.82-5.5472-37.192-16.663-8.3819-11.096-12.558-27.113-12.558-48.052 0-21.774 4.1761-38.158 12.558-49.164 8.3719-10.986 21.359-16.485 38.944-16.485 10.385 0 22.943 2.7331 37.674 8.2014l8.7522-23.671c-5.4077-2.7342-12.267-4.9722-20.599-6.7122-8.3217-1.7399-16.715-2.5942-25.197-2.5942zm-1166.5 23.195c13.344 0 23.683 4.2158 30.993 12.627 7.3153 8.4212 11.075 20.729 11.287 36.925h-88.862c1.4811-15.57 6.1954-27.72 14.145-36.449 7.9612-8.7394 18.756-13.103 32.438-13.103zm563 0c13.351 0 23.685 4.2158 30.995 12.627 7.3204 8.4212 11.065 20.729 11.285 36.925h-88.858c1.4811-15.57 6.1955-27.72 14.145-36.449 7.9483-8.7394 18.76-13.103 32.434-13.103zm-386.44 0.31735c17.375 1e-5 30.117 5.1309 38.228 15.391 8.1074 10.251 12.164 27.441 12.164 51.522v5.2095c0 21.466-4.0062 36.906-12 46.322-8.0033 9.4154-20.7 14.128-38.07 14.128-15.054 0-26.58-5.517-34.578-16.573-8.0073-11.046-12.006-27.303-12.006-48.769 0-21.565 4.0277-38.159 12.081-49.791 8.0533-11.633 19.449-17.439 34.182-17.439zm797.6 0.29823c16.864 0 29.653 5.5078 38.405 16.504 8.7424 10.996 13.118 27.382 13.118 49.166 0 21.774-4.3565 38.328-13.039 49.633-8.7023 11.314-21.36 16.961-37.993 16.961-16.854 0-29.592-5.6466-38.234-16.961-8.6322-11.304-12.958-27.859-12.958-49.633 0-43.766 16.904-65.67 50.701-65.67zm-604.91 0.0114c17.9 0 30.88 5.2686 38.934 15.778 8.0614 10.529 12.093 27.372 12.093 50.518v6.781c0 20.829-4.0049 35.962-12.004 45.377-8.0033 9.4154-20.801 14.128-38.388 14.128-15.476 0-27.109-5.6275-34.895-16.892-7.786-11.255-11.679-27.61-11.679-49.086 0-21.356 3.989-37.79 12-49.314 7.9942-11.523 19.311-17.29 33.939-17.29z" fill="#fff" fill-rule="nonzero"/>
<g transform="matrix(.44207 0 0 .43945 731 151.39)">
<g fill-rule="nonzero" stroke-width="4.7928">
<path d="m-681.42 219.57 51.849-51.874-51.849-51.865 39.006-62.101-62.081-39.024 24.219-69.235-69.206-24.223 8.2063-72.888-72.858-8.2107-8.2132-72.891-72.858 8.2107-24.219-69.234-69.199 24.225-39.02-62.104-62.086 39.025-51.844-51.865-51.844 51.868-62.084-39.021-39.007 62.101-69.207-24.228-24.214 69.232-72.865-8.2134-8.2077 72.885-72.859 8.2114 8.2112 72.885-69.216 24.228 24.216 69.23-62.081 39.021 39.013 62.116-51.855 51.868 51.849 51.874-39.008 62.109 62.081 39.02-24.216 69.231 69.213 24.228-8.2084 72.877 72.859 8.2162 8.2077 72.884 72.865-8.2093 24.214 69.224 69.204-24.214 39.011 62.104 62.079-39.027 51.849 51.386 51.849-51.372 62.081 39.02 39.006-62.111 69.213 24.228 24.212-69.231 72.865 8.2093 8.2063-72.891 72.865-8.2093-8.2132-72.884 69.213-24.228-24.219-69.238 62.081-39.02z" fill="#9b1b01"/>
<path d="m-786.4 249.69c0-100.25-81.236-181.51-181.45-181.51-49.775 0-94.865 20.066-127.64 52.54l-0.023-0.0234-46.231 46.25-37.801-37.815c-33.257-37.956-82.043-61.951-136.46-61.951-100.21 0-181.45 81.268-181.45 181.51 0 52.385 22.207 99.552 57.686 132.68l298.2 298.15 291.61-291.9c36.436-34.305 63.563-82.713 63.563-137.92" fill="#fcca8c"/>
<path d="m-1141.8 166.94-37.801-37.815c-33.257-37.956-82.043-61.951-136.46-61.951-100.21 0-181.45 81.268-181.45 181.51 0 52.385 22.207 99.552 57.686 132.68l298.2 298.15" fill="url(#a-3)"/>
</g>
<path d="m-1141.6 679.51-0.175-512.57" fill="none" stroke-width="4.7928"/>
<g transform="translate(-1653.6 -344.49)" fill-rule="nonzero" stroke-width="10.124">
<path d="m563.8 972.46c-13.284-13.338-31.638-21.581-51.901-21.581-20.269 0-38.617 8.2438-51.904 21.581 0.21222 28.495 23.364 51.53 51.901 51.53 28.537 0 51.691-23.042 51.904-51.53" fill="#010007"/>
<path d="m451.28 658.58c0 21.919-17.754 39.682-39.668 39.682-21.902 0-39.659-17.763-39.659-39.682 0-21.919 17.757-39.682 39.659-39.682 21.914 0 39.668 17.763 39.668 39.682" fill="#010007"/>
<path d="m437.67 652.63c0 6.0794-4.9238 10.987-10.99 10.987-6.0689 0-10.995-4.9076-10.995-10.987 0-6.0725 4.9266-11.001 10.995-11.001 6.0662 0 10.99 4.9283 10.99 11.001" fill="#fffffa"/>
<path d="m652.44 658.58c0 21.919-17.756 39.682-39.667 39.682-21.904 0-39.665-17.763-39.665-39.682 0-21.919 17.761-39.682 39.665-39.682 21.911 0 39.667 17.763 39.667 39.682" fill="#010007"/>
<path d="m638.83 652.63c0 6.0794-4.9265 10.987-10.99 10.987-6.0703 0-10.997-4.9076-10.997-10.987 0-6.0725 4.9266-11.001 10.997-11.001 6.0634 0 10.99 4.9283 10.99 11.001" fill="#fffffa"/>
</g>
</g>
</svg>
