<svg xml:space="preserve" viewBox="0 0 1649.999 414.101" style="clip-rule:evenodd;fill-rule:evenodd;stroke-linejoin:round;stroke-miterlimit:2"
     width="1649.999" height="414.101" xmlns="http://www.w3.org/2000/svg"><path style="fill-rule:nonzero;stroke-width:3.28496" d="M914.054 121.756v70.362c-4.98-5.276-10.966-9.4-17.953-12.375-6.99-2.973-14.572-4.461-22.748-4.461-10.778 0-20.426 2.506-28.938 7.525-8.511 5.02-15.205 11.896-20.07 20.63-4.872 8.739-7.307 18.678-7.307 29.827 0 11.156 2.435 21.1 7.307 29.832 4.865 8.735 11.559 15.61 20.07 20.629 8.512 5.02 18.16 7.53 28.938 7.53 8.4 0 16.168-1.58 23.306-4.741 7.135-3.16 13.193-7.49 18.176-12.992l1.006 15.502h16.611V121.756Zm-393.295.002v167.266h19.516v-73.596h95.34v73.596h19.513V121.758h-19.514v75.83h-95.34v-75.83zm724.7.22v167.268h45.495c32.86 0 58.1-7.32 75.717-21.968 17.617-14.641 26.426-35.276 26.426-61.887 0-26.54-8.809-47.077-26.426-61.61-17.617-14.532-42.857-21.802-75.717-21.802zm19.515 17.847h25.98c26.464 0 46.762 5.704 60.887 17.113 14.122 11.415 21.186 27.564 21.186 48.453 0 20.961-7.064 37.21-21.186 48.73-14.125 11.524-34.423 17.286-60.887 17.286h-25.98zm-248.33 35.455c-10.778 0-20.426 2.51-28.938 7.529-8.511 5.02-15.205 11.894-20.07 20.629-4.872 8.735-7.307 18.676-7.307 29.828 0 11.152 2.435 21.095 7.307 29.83 4.865 8.735 11.559 15.61 20.07 20.629 8.512 5.02 18.16 7.527 28.938 7.527 8.176 0 15.757-1.488 22.748-4.46 6.987-2.973 12.973-7.097 17.953-12.376v5.795c0 15.167-3.81 27.301-11.428 36.41-7.624 9.103-19.35 13.657-35.183 13.657-6.245 0-12.042-1.023-17.393-3.067a46.942 46.942 0 0 1-14.277-8.527l-9.14 15.387c5.498 4.09 11.666 7.263 18.505 9.533 6.84 2.27 14.162 3.4 21.97 3.4 14.198 0 26.148-2.882 35.852-8.64 9.7-5.762 17.04-13.81 22.024-24.141 4.98-10.334 7.468-22.377 7.468-36.13V177.51h-16.615l-1.004 15.502c-4.98-5.502-11.037-9.832-18.175-12.992-7.135-3.16-14.906-4.74-23.305-4.74zm591.765.002c-11.152 0-21.095 2.51-29.83 7.529a54.938 54.938 0 0 0-20.63 20.629c-5.017 8.735-7.526 18.676-7.526 29.828 0 11.152 2.51 21.095 7.526 29.826a54.938 54.938 0 0 0 20.63 20.631c8.735 5.02 18.678 7.53 29.83 7.53 8.4 0 16.13-1.45 23.192-4.35 7.062-2.9 13.195-6.951 18.398-12.155l-12.824-12.712a37.935 37.935 0 0 1-12.598 9.14c-4.907 2.23-10.297 3.348-16.168 3.348-7.509 0-14.2-1.783-20.074-5.354-5.873-3.567-10.502-8.475-13.883-14.716-3.383-6.245-5.072-13.307-5.072-21.188 0-7.953 1.689-15.036 5.072-21.244 3.38-6.205 8.01-11.095 13.883-14.662 5.874-3.571 12.565-5.354 20.074-5.354 5.87 0 11.26 1.098 16.168 3.29a36.594 36.594 0 0 1 12.598 9.2l12.824-12.826c-5.203-5.128-11.336-9.14-18.398-12.04-7.063-2.901-14.792-4.35-23.192-4.35zm-867.867.002c-11.001 0-20.85 2.494-29.549 7.47a54.52 54.52 0 0 0-20.517 20.465c-4.98 8.66-7.475 18.492-7.475 29.496 0 11.3 2.658 21.373 7.977 30.22 5.312 8.845 12.655 15.777 22.023 20.796 9.366 5.016 32.113 7.525 32.113 7.525 7.51 0 15.294-1.265 23.362-3.795 8.064-2.526 16.15-7.17 24.254-13.937l-10.819-13.826c-5.502 5.203-11.595 8.978-18.283 11.32-6.695 2.339-13.048 3.512-19.072 3.512-10.854 0-20.127-3.18-27.82-9.533-7.694-6.36-12.471-14.48-14.33-24.368h94.562v-7.47c0-11.225-2.418-21.188-7.25-29.883-4.832-8.699-11.486-15.538-19.96-20.522-8.476-4.976-18.211-7.47-29.216-7.47zm420.613 0c-11 0-20.85 2.494-29.548 7.47a54.52 54.52 0 0 0-20.518 20.465c-4.98 8.66-7.473 18.492-7.473 29.496 0 11.3 2.657 21.373 7.975 30.22 5.312 8.845 12.658 15.777 22.023 20.796 9.366 5.016 20.071 7.525 32.114 7.525 7.51 0 15.295-1.265 23.363-3.795 8.065-2.526 16.148-7.17 24.252-13.937l-10.816-13.826c-5.503 5.203-11.597 8.978-18.286 11.32-6.691 2.339-13.047 3.512-19.072 3.512-10.853 0-20.127-3.18-27.82-9.533-7.694-6.36-12.469-14.48-14.328-24.368h94.56v-7.47c0-11.225-2.418-21.188-7.25-29.883-4.832-8.699-11.484-15.538-19.959-20.522-8.475-4.976-18.212-7.47-29.217-7.47zm311.211 0c-11.152 0-21.091 2.506-29.826 7.525a54.967 54.967 0 0 0-20.633 20.63c-5.016 8.736-7.525 18.678-7.525 29.827 0 11.153 2.51 21.097 7.525 29.832a54.967 54.967 0 0 0 20.633 20.629c8.735 5.02 18.674 7.525 29.826 7.525 11.15 0 21.094-2.506 29.828-7.525a54.984 54.984 0 0 0 20.63-20.629c5.019-8.735 7.527-18.68 7.527-29.832 0-11.149-2.508-21.091-7.528-29.826a54.984 54.984 0 0 0-20.629-20.63c-8.734-5.02-18.678-7.526-29.828-7.526zm-454.05 16.722c7.506 0 14.202 1.785 20.072 5.356 5.873 3.567 10.5 8.458 13.88 14.66 3.384 6.209 5.077 13.291 5.077 21.244 0 7.88-1.693 14.943-5.076 21.188-3.38 6.244-8.008 11.15-13.881 14.72-5.87 3.568-12.566 5.35-20.072 5.35-7.51 0-14.2-1.782-20.07-5.35-5.874-3.57-10.503-8.476-13.883-14.72-3.387-6.245-5.075-13.307-5.075-21.188 0-7.953 1.688-15.035 5.075-21.244 3.38-6.202 8.009-11.093 13.882-14.66 5.87-3.57 12.561-5.356 20.07-5.356zm-143.291.002c7.509 0 14.202 1.784 20.072 5.352 5.873 3.57 10.501 8.459 13.885 14.664 3.38 6.209 5.072 13.29 5.072 21.24 0 7.88-1.692 14.945-5.072 21.19-3.384 6.244-8.012 11.15-13.885 14.718-5.87 3.571-12.563 5.356-20.072 5.356-7.51 0-14.2-1.785-20.07-5.356-5.874-3.567-10.503-8.474-13.883-14.718-3.384-6.245-5.075-13.31-5.075-21.19 0-7.95 1.691-15.031 5.075-21.24 3.38-6.205 8.009-11.093 13.882-14.664 5.87-3.568 12.561-5.352 20.07-5.352zm-134.592.002c9.736 0 17.988 3.065 24.752 9.202 6.764 6.133 10.965 14.066 12.601 23.806h-75.603c1.636-9.589 5.948-17.489 12.935-23.697 6.987-6.205 15.427-9.31 25.315-9.31zm420.613 0c9.737 0 17.99 3.065 24.754 9.202 6.764 6.133 10.964 14.066 12.6 23.806h-75.604c1.636-9.589 5.95-17.489 12.938-23.697 6.987-6.205 15.424-9.31 25.312-9.31zm311.32 0c7.506 0 14.202 1.781 20.073 5.352 5.873 3.57 10.501 8.459 13.884 14.664 3.38 6.205 5.073 13.287 5.073 21.24 0 7.88-1.692 14.945-5.072 21.19-3.384 6.244-8.012 11.148-13.885 14.718-5.87 3.568-12.567 5.352-20.073 5.352-7.509 0-14.2-1.784-20.07-5.352-5.873-3.57-10.503-8.474-13.883-14.718-3.387-6.245-5.074-13.31-5.074-21.19 0-7.953 1.687-15.035 5.074-21.24 3.38-6.205 8.01-11.093 13.883-14.664 5.87-3.57 12.561-5.352 20.07-5.352z"/>
    <path d="m393.275 228.101 20.976-20.977-20.976-20.974 15.78-25.114-25.115-15.781 9.798-27.998-27.997-9.796 3.32-29.475-29.474-3.32-3.322-29.478-29.474 3.32-9.798-27.997-27.994 9.796-15.785-25.114-25.116 15.781L207.125 0l-20.973 20.975-25.116-15.78-15.78 25.114-27.997-9.798-9.796 27.997-29.476-3.322-3.32 29.475-29.475 3.32 3.322 29.474-28.001 9.798 9.796 27.996-25.114 15.78 15.782 25.12L0 207.123 20.975 228.1l-15.78 25.116 25.114 15.78-9.796 27.997 28 9.797-3.321 29.471 29.474 3.323 3.32 29.474 29.477-3.32 9.796 27.994 27.996-9.792 15.781 25.114 25.114-15.782 20.975 20.78L228.1 393.28l25.114 15.78 15.78-25.118 27.999 9.798 9.795-27.997 29.477 3.32 3.32-29.477 29.476-3.32-3.322-29.474 28-9.797-9.799-28 25.115-15.78z"
          style="fill:#b51f08;fill-rule:nonzero;stroke-width:.27874"/>
    <path d="M350.807 240.281c0-40.539-32.864-73.404-73.404-73.404-20.136 0-38.377 8.115-51.637 21.247l-.009-.009-18.702 18.704-15.293-15.292c-13.453-15.35-33.19-25.053-55.202-25.053-40.54 0-73.404 32.864-73.404 73.403 0 21.185 8.984 40.259 23.337 53.655l120.632 120.569 117.968-118.044c14.74-13.873 25.714-33.449 25.714-55.776"
          style="fill:#fdd49a;fill-rule:nonzero;stroke-width:.27874"/>
    <path d="m207.054 206.818-15.292-15.292c-13.454-15.35-33.19-25.053-55.202-25.053-40.54 0-73.404 32.865-73.404 73.404 0 21.184 8.984 40.258 23.336 53.655L207.125 414.1"
          style="fill:url(#a);fill-rule:nonzero;stroke-width:.27874"/>
    <path d="m207.125 414.1-.07-207.282" style="fill:none;stroke-width:.27874"/>
    <path d="M228.08 393.256c-5.373-5.393-12.799-8.727-20.996-8.727-8.2 0-15.622 3.334-20.997 8.727.086 11.524 9.452 20.839 20.996 20.839 11.544 0 20.911-9.318 20.997-20.839m-45.519-126.93c0 8.865-7.182 16.048-16.047 16.048-8.86 0-16.044-7.183-16.044-16.047s7.183-16.047 16.044-16.047c8.865 0 16.047 7.183 16.047 16.047"
          style="fill:#010007;fill-rule:nonzero;stroke-width:.27874"/>
    <path d="M177.057 263.921a4.442 4.442 0 0 1-4.446 4.443 4.444 4.444 0 0 1-4.448-4.443 4.45 4.45 0 0 1 4.448-4.449 4.449 4.449 0 0 1 4.446 4.45"
          style="fill:#fffffa;fill-rule:nonzero;stroke-width:.27874"/>
    <path d="M263.937 266.327c0 8.864-7.183 16.047-16.047 16.047-8.861 0-16.046-7.183-16.046-16.047s7.185-16.047 16.046-16.047c8.864 0 16.047 7.183 16.047 16.047"
          style="fill:#010007;fill-rule:nonzero;stroke-width:.27874"/>
    <path d="M258.432 263.921a4.443 4.443 0 0 1-4.446 4.443 4.444 4.444 0 0 1-4.448-4.443 4.45 4.45 0 0 1 4.448-4.449 4.45 4.45 0 0 1 4.446 4.45"
          style="fill:#fffffa;fill-rule:nonzero;stroke-width:.27874"/>
    <defs><linearGradient id="a" x1="0" y1="0" x2="1" y2="0" gradientUnits="userSpaceOnUse" gradientTransform="scale(129.6665) rotate(-64.537 2.594 .406)"><stop offset="0" style="stop-color:#fdd49a;stop-opacity:1"/><stop
            offset="1" style="stop-color:#dca055;stop-opacity:1"/></linearGradient></defs></svg>
