<?xml version="1.0" encoding="UTF-8" standalone="no"?>
<svg
   xmlns:dc="http://purl.org/dc/elements/1.1/"
   xmlns:cc="http://creativecommons.org/ns#"
   xmlns:rdf="http://www.w3.org/1999/02/22-rdf-syntax-ns#"
   xmlns:svg="http://www.w3.org/2000/svg"
   xmlns="http://www.w3.org/2000/svg"
   xmlns:sodipodi="http://sodipodi.sourceforge.net/DTD/sodipodi-0.dtd"
   xmlns:inkscape="http://www.inkscape.org/namespaces/inkscape"
   height="511.99997"
   viewBox="0 0 146.54423 135.46665"
   width="553.86798"
   version="1.1"
   id="svg1439"
   sodipodi:docname="disabledScroll.svg"
   inkscape:version="1.0 (4035a4fb49, 2020-05-01)">
  <metadata
     id="metadata1445">
    <rdf:RDF>
      <cc:Work
         rdf:about="">
        <dc:format>image/svg+xml</dc:format>
        <dc:type
           rdf:resource="http://purl.org/dc/dcmitype/StillImage" />
        <dc:title></dc:title>
      </cc:Work>
    </rdf:RDF>
  </metadata>
  <defs
     id="defs1443" />
  <sodipodi:namedview
     fit-margin-bottom="0"
     fit-margin-right="0"
     fit-margin-left="0"
     fit-margin-top="0"
     inkscape:document-rotation="0"
     pagecolor="#ffffff"
     bordercolor="#666666"
     borderopacity="1"
     objecttolerance="10"
     gridtolerance="10"
     guidetolerance="10"
     inkscape:pageopacity="0"
     inkscape:pageshadow="2"
     inkscape:window-width="3434"
     inkscape:window-height="1349"
     id="namedview1441"
     showgrid="false"
     inkscape:pagecheckerboard="true"
     inkscape:zoom="1.6386719"
     inkscape:cx="300.4988"
     inkscape:cy="257.03657"
     inkscape:window-x="0"
     inkscape:window-y="56"
     inkscape:window-maximized="0"
     inkscape:current-layer="svg1439" />
  <path
     style="stroke-width:0.264583"
     d="M 140.95035,0 0,129.3663 5.5918772,135.46665 146.54422,6.1003509 Z M 74.018298,0.436423 c -1.358554,0.04565 -2.655834,0.578717 -3.65461,1.503429 L 47.95486,22.676647 c -2.295288,2.125719 -2.444448,5.740586 -0.33254,8.049607 2.111625,2.309383 5.722646,2.461841 8.019622,0.337874 L 74.207561,13.883984 92.773177,31.064128 c 0.87404,0.808199 1.93864,1.284544 3.03818,1.440119 l 6.462213,-5.922417 c -0.0724,-1.440778 -0.68095,-2.855034 -1.81597,-3.905183 L 78.051433,1.939852 C 76.957086,0.92669902 75.506848,0.386954 74.018298,0.436423 Z m 0.189263,28.287258 c -13.520105,0 -24.552011,11.031934 -24.552011,24.552011 v 21.528495 l 9.42242,-8.63539 V 53.275692 c 0,-8.463634 6.665929,-15.129586 15.129591,-15.129586 4.211464,0 7.977153,1.65115 10.698604,4.352348 l 6.890052,-6.31427 C 87.329869,31.589521 81.093561,28.723681 74.207561,28.723681 Z m 0.10796,13.926714 c -2.929484,-1.53e-4 -5.346766,2.41982 -5.346639,5.349301 v 9.104545 l 10.65129,-9.76096 c -0.329324,-2.625417 -2.597575,-4.692982 -5.304651,-4.692886 z m 24.444049,17.847888 -9.422423,8.63539 v 13.013725 c 0,8.463635 -6.665975,15.129586 -15.129586,15.129586 -4.244255,0 -8.035711,-1.67699 -10.761916,-4.415661 l -6.888717,6.312941 c 4.470514,4.632276 10.732524,7.525136 17.650633,7.525136 13.520053,0 24.552009,-11.031966 24.552009,-24.552002 z M 96.8523,102.86552 c -1.453833,-0.0613 -2.930623,0.43146 -4.079123,1.49345 L 74.207561,121.5391 55.641942,104.35897 c -0.90611,-0.83787 -2.016193,-1.31612 -3.158134,-1.45279 l -6.347588,5.81713 c 0.04393,1.4811 0.653351,2.94393 1.81864,4.02314 l 22.408828,20.73679 c 0.998776,0.92471 2.296056,1.45778 3.65461,1.50343 1.48855,0.0496 2.938788,-0.49028 4.033135,-1.50343 L 100.4576,112.74645 c 2.29636,-2.12465 2.44614,-5.73959 0.33521,-8.04962 -1.05582,-1.1547 -2.48669,-1.77001 -3.94051,-1.83131 z"
     fill="#ffffff"
     fill-rule="evenodd"
     id="path1437"
     sodipodi:nodetypes="cccccccccccccccccssccssccscccccccssccsscscccccccccccs" />
</svg>
