<?xml version="1.0" encoding="UTF-8" standalone="no"?>
<svg
   xmlns:dc="http://purl.org/dc/elements/1.1/"
   xmlns:cc="http://creativecommons.org/ns#"
   xmlns:rdf="http://www.w3.org/1999/02/22-rdf-syntax-ns#"
   xmlns:svg="http://www.w3.org/2000/svg"
   xmlns="http://www.w3.org/2000/svg"
   xmlns:sodipodi="http://sodipodi.sourceforge.net/DTD/sodipodi-0.dtd"
   xmlns:inkscape="http://www.inkscape.org/namespaces/inkscape"
   height="495"
   viewBox="0 0 135.98155 130.96874"
   width="513.94604"
   version="1.1"
   id="svg22"
   sodipodi:docname="disabledScroll.svg"
   inkscape:version="1.0 (4035a4fb49, 2020-05-01)">
  <metadata
     id="metadata28">
    <rdf:RDF>
      <cc:Work
         rdf:about="">
        <dc:format>image/svg+xml</dc:format>
        <dc:type
           rdf:resource="http://purl.org/dc/dcmitype/StillImage" />
        <dc:title></dc:title>
      </cc:Work>
    </rdf:RDF>
  </metadata>
  <defs
     id="defs26" />
  <sodipodi:namedview
     inkscape:document-rotation="0"
     pagecolor="#ffffff"
     bordercolor="#666666"
     borderopacity="1"
     objecttolerance="10"
     gridtolerance="10"
     guidetolerance="10"
     inkscape:pageopacity="0"
     inkscape:pageshadow="2"
     inkscape:window-width="3434"
     inkscape:window-height="1293"
     id="namedview24"
     showgrid="false"
     inkscape:zoom="1.6949495"
     inkscape:cx="397.81986"
     inkscape:cy="246.92986"
     inkscape:window-x="0"
     inkscape:window-y="112"
     inkscape:window-maximized="0"
     inkscape:current-layer="g20" />
  <g
     transform="translate(253.17277,890.86874)"
     id="g20">
    <path
       id="path893"
       style="color:#000000;font-style:normal;font-variant:normal;font-weight:normal;font-stretch:normal;font-size:medium;line-height:normal;font-family:sans-serif;font-variant-ligatures:normal;font-variant-position:normal;font-variant-caps:normal;font-variant-numeric:normal;font-variant-alternates:normal;font-variant-east-asian:normal;font-feature-settings:normal;font-variation-settings:normal;text-indent:0;text-align:start;text-decoration:none;text-decoration-line:none;text-decoration-style:solid;text-decoration-color:#000000;letter-spacing:normal;word-spacing:normal;text-transform:none;writing-mode:lr-tb;direction:ltr;text-orientation:mixed;dominant-baseline:auto;baseline-shift:baseline;text-anchor:start;white-space:normal;shape-padding:0;shape-margin:0;inline-size:0;clip-rule:nonzero;display:inline;overflow:visible;visibility:visible;isolation:auto;mix-blend-mode:normal;color-interpolation:sRGB;color-interpolation-filters:linearRGB;solid-color:#000000;solid-opacity:1;vector-effect:none;fill:#ffffff;fill-opacity:1;fill-rule:evenodd;stroke:none;stroke-width:3.77953;stroke-linecap:butt;stroke-linejoin:miter;stroke-miterlimit:4;stroke-dasharray:none;stroke-dashoffset:0;stroke-opacity:1;color-rendering:auto;image-rendering:auto;shape-rendering:auto;text-rendering:auto;enable-background:accumulate;stop-color:#000000"
       d="M 31.050781,-1.890625 C 12.879152,-1.8868455 -1.8873613,12.888917 -1.8867188,31.060547 V 463.94336 c -6.425e-4,18.17163 14.7658708,32.9401 32.9374998,32.94531 H 482.88281 c 18.17575,6.4e-4 32.95381,-14.76956 32.95313,-32.94531 V 31.060547 c 6.8e-4,-18.175749 -14.77738,-32.9518145 -32.95313,-32.951172 z m 1.890625,63.667969 H 241.56836 v 13.169922 l -84.29297,84.292964 a 11.805034,11.805034 0 0 0 0,16.69727 11.805034,11.805034 0 0 0 16.68945,0 l 67.60352,-67.59766 v 45.32618 c -31.90046,7.3625 -55.82227,36.02536 -55.82227,70.10351 v 69.74024 L 32.941406,433.55664 Z m 239.431644,0 H 438.58984 L 344.98828,147.5625 272.37305,74.941406 Z M 481,86.810547 V 462.05273 H 272.37305 v -13.14062 l 84.30078,-84.30664 a 11.805034,11.805034 0 0 0 0,-16.69141 11.805034,11.805034 0 0 0 -16.69727,0 l -67.60351,67.60352 v -36.6875 c 32.63234,-6.80928 57.28515,-35.84422 57.28515,-70.44336 v -82.86914 z m -208.62695,21.523433 55.19531,55.19532 -15.02539,13.77148 c -10.1901,-12.00049 -24.22143,-20.6467 -40.16992,-23.97461 z m -14.66993,71.09375 c 14.13506,0 26.55174,6.35075 34.625,16.39844 l -22.7832,20.88086 v -18.03906 c 3e-4,-6.34171 -5.17977,-11.52363 -11.52148,-11.52344 -6.34179,-3e-4 -11.52374,5.18166 -11.52344,11.52344 v 29.01758 c -1.5e-4,2.88093 1.07621,5.51588 2.83789,7.54101 l -35.97656,32.97266 v -44.42969 c 0,-24.80523 19.53649,-44.3418 44.34179,-44.3418 z m 44.3418,71.39649 v 57.5625 c 0,24.80523 -19.53662,44.3418 -44.3418,44.3418 -17.7187,0 -32.74292,-9.97253 -39.88476,-24.70899 z M 197.07617,347.0293 c 10.01485,15.62678 25.89216,27.16812 44.49219,31.46093 v 37.02149 l -57.01172,-57.00781 z m -29.93945,27.43945 74.43164,74.43555 v 13.14843 H 71.574219 Z"
       transform="matrix(0.26458332,0,0,0.26458332,-253.17277,-890.86874)" />
  </g>
</svg>
