<svg height="495" viewBox="0 0 135.98155 130.96874" width="513.94604" xmlns="http://www.w3.org/2000/svg"><path d="m31.050781-1.890625c-18.171629.0037795-32.9381423 14.779542-32.9374998 32.951172v432.882813c-.0006425 18.17163 14.7658708 32.9401 32.9374998 32.94531h451.832029c18.17575.00064 32.95381-14.76956 32.95313-32.94531v-432.882813c.00068-18.175749-14.77738-32.9518145-32.95313-32.951172zm1.890625 63.667969h208.626954v13.169922l-84.29297 84.292964a11.805034 11.805034 0 0 0 0 16.69727 11.805034 11.805034 0 0 0 16.68945 0l67.60352-67.59766v45.32618c-31.90046 7.3625-55.82227 36.02536-55.82227 70.10351v69.74024l-152.804684 140.04687zm239.431644 0h166.21679l-93.60156 85.785156-72.61523-72.621094zm208.62695 25.033203v375.242183h-208.62695v-13.14062l84.30078-84.30664a11.805034 11.805034 0 0 0 0-16.69141 11.805034 11.805034 0 0 0 -16.69727 0l-67.60351 67.60352v-36.6875c32.63234-6.80928 57.28515-35.84422 57.28515-70.44336v-82.86914zm-208.62695 21.523433 55.19531 55.19532-15.02539 13.77148c-10.1901-12.00049-24.22143-20.6467-40.16992-23.97461zm-14.66993 71.09375c14.13506 0 26.55174 6.35075 34.625 16.39844l-22.7832 20.88086v-18.03906c.0003-6.34171-5.17977-11.52363-11.52148-11.52344-6.34179-.0003-11.52374 5.18166-11.52344 11.52344v29.01758c-.00015 2.88093 1.07621 5.51588 2.83789 7.54101l-35.97656 32.97266v-44.42969c0-24.80523 19.53649-44.3418 44.34179-44.3418zm44.3418 71.39649v57.5625c0 24.80523-19.53662 44.3418-44.3418 44.3418-17.7187 0-32.74292-9.97253-39.88476-24.70899zm-104.96875 96.20508c10.01485 15.62678 25.89216 27.16812 44.49219 31.46093v37.02149l-57.01172-57.00781zm-29.93945 27.43945 74.43164 74.43555v13.14843h-169.994141z" fill="#fff" fill-rule="evenodd" transform="scale(.26458332)"/></svg>