<svg height="512" viewBox="0 0 135.46666 135.46666" width="512" xmlns="http://www.w3.org/2000/svg"><path d="m104.12891 6.234375a11.804995 11.804995 0 0 0 -.18946.00195 11.804995 11.804995 0 0 0 -11.167966 8.6874999 11.804995 11.804995 0 0 0 8.267576 14.50586l45.28711 12.390624c-80.063511 41.4285381-130.641367 123.5481711-130.769529 213.2968811-.07128 49.84374 15.427506 97.37615 42.916015 136.92773l23.25-21.30664c-22.428907-33.69479-34.98558-73.69113-34.925781-115.57812.11317-79.11267 45.188281-151.36791 116.742185-187.044926l-9.57812 47.253906a11.804995 11.804995 0 0 0 9.21875 13.91602 11.804995 11.804995 0 0 0 13.91601-9.22071l15.92188-78.535153a11.806176 11.806176 0 0 0 -8.45899-13.730469l-77.28906-21.142578a11.804995 11.804995 0 0 0 -3.14062-.421875zm250.7539 32.869141a15.618898 15.618898 0 0 0 -13.86523 8.693359 15.618898 15.618898 0 0 0 7.07226 20.927734c13.44013 6.650191 25.9489 14.58846 37.40821 23.617188l23.2832-21.335938c-14.20746-11.694869-29.88078-21.891817-46.83594-30.28125a15.618898 15.618898 0 0 0 -7.0625-1.621093zm115.51758 3.953125-445.195312 408.003909 16.388672 17.8789 445.20117-408.003903zm-214.95508 15.953125c-3.98165.133795-7.78372 1.696102-10.71093 4.40625l-65.67579 60.775394c-6.72703 6.23006-7.16419 16.82451-.97461 23.59179 6.18875 6.76834 16.77193 7.21516 23.50391.99024l54.41211-50.351565 54.41211 50.351565c2.56162 2.36867 5.68176 3.76474 8.9043 4.2207l18.93945-17.35742c-.21223-4.22263-1.99574-8.36753-5.32227-11.44531l-65.66797-60.775394c-3.20731-2.969348-7.45767-4.551233-11.82031-4.40625zm198.29492 60.757814-23.24609 21.30469c22.43225 33.69671 34.98951 73.69707 34.92969 115.58789-.11279 79.10978-45.19074 151.37033-116.74024 187.04882l9.57813-47.25781a11.805355 11.805355 0 0 0 -9.2207-13.91601 11.805355 11.805355 0 0 0 -2.23633-.23633 11.805355 11.805355 0 0 0 -11.68555 9.45703l-15.91602 78.53516a11.806535 11.806535 0 0 0 8.45313 13.73046l77.28711 21.14844a11.805355 11.805355 0 0 0 14.50586-8.27344 11.805355 11.805355 0 0 0 -8.27539-14.50586l-45.27539-12.38867c80.0575-41.43055 130.62965-123.554 130.75781-213.29883.0711-49.84704-15.42677-97.38239-42.91602-136.93554zm-197.74023 22.14648c-39.62472 0-71.95703 32.33239-71.95703 71.95703v63.09571l27.61523-25.3086v-37.78711c0-24.80522 19.5365-44.34179 44.3418-44.34179 12.34296 0 23.37944 4.83919 31.35547 12.75586l20.19336-18.50586c-13.08997-13.46604-31.36734-21.86524-51.54883-21.86524zm.31641 40.81641c-8.58573-.00045-15.6703 7.09201-15.66993 15.67773v26.6836l31.2168-28.60742c-.96518-7.69457-7.61297-13.75419-15.54687-13.75391zm71.64062 52.30859-27.61523 25.3086v38.14062c0 24.80523-19.53665 44.3418-44.3418 44.3418-12.43906 0-23.55106-4.91493-31.54102-12.94141l-20.18945 18.50195c13.10218 13.57628 31.45488 22.05469 51.73047 22.05469 39.62457 0 71.95703-32.3325 71.95703-71.95703zm-5.58984 124.16992c-4.26088-.17962-8.58907 1.26448-11.95508 4.37696l-54.41211 50.35156-54.41211-50.35156c-2.65563-2.45561-5.90906-3.85726-9.25586-4.25782l-18.60351 17.04883c.12875 4.34085 1.91484 8.62811 5.33007 11.79102l65.67579 60.77539c2.92721 2.71015 6.72928 4.27245 10.71093 4.40625 4.36264.14513 8.613-1.4369 11.82031-4.40625l65.66797-60.77539c6.73021-6.22692 7.16917-16.82157.98243-23.5918-3.09438-3.3842-7.28795-5.18756-11.54883-5.36719zm-195.65625 60.25782-23.28321 21.33789c14.21125 11.69893 29.88976 21.89926 46.84961 30.29101a15.618898 15.618898 0 0 0 20.92774-7.07226 15.618898 15.618898 0 0 0 -7.07227-20.92774c-13.44565-6.65292-25.95861-14.59557-37.42187-23.6289z" fill="#fff" fill-rule="evenodd" transform="scale(.26458333)"/></svg>