<?xml version="1.0" encoding="UTF-8" standalone="no"?>
<svg
   xmlns:dc="http://purl.org/dc/elements/1.1/"
   xmlns:cc="http://creativecommons.org/ns#"
   xmlns:rdf="http://www.w3.org/1999/02/22-rdf-syntax-ns#"
   xmlns:svg="http://www.w3.org/2000/svg"
   xmlns="http://www.w3.org/2000/svg"
   xmlns:sodipodi="http://sodipodi.sourceforge.net/DTD/sodipodi-0.dtd"
   xmlns:inkscape="http://www.inkscape.org/namespaces/inkscape"
   height="495"
   viewBox="0 0 135.46666 130.96874"
   width="512"
   version="1.1"
   id="svg4"
   sodipodi:docname="enabledScroll.svg"
   inkscape:version="1.0 (4035a4fb49, 2020-05-01)">
  <metadata
     id="metadata10">
    <rdf:RDF>
      <cc:Work
         rdf:about="">
        <dc:format>image/svg+xml</dc:format>
        <dc:type
           rdf:resource="http://purl.org/dc/dcmitype/StillImage" />
        <dc:title></dc:title>
      </cc:Work>
    </rdf:RDF>
  </metadata>
  <defs
     id="defs8" />
  <sodipodi:namedview
     inkscape:document-rotation="0"
     pagecolor="#ffffff"
     bordercolor="#666666"
     borderopacity="1"
     objecttolerance="10"
     gridtolerance="10"
     guidetolerance="10"
     inkscape:pageopacity="0"
     inkscape:pageshadow="2"
     inkscape:window-width="3434"
     inkscape:window-height="1293"
     id="namedview6"
     showgrid="false"
     inkscape:pagecheckerboard="true"
     inkscape:zoom="1.1985103"
     inkscape:cx="171.09934"
     inkscape:cy="186.16996"
     inkscape:window-x="0"
     inkscape:window-y="112"
     inkscape:window-maximized="0"
     inkscape:current-layer="svg4" />
  <path
     d="m-244.98849-890.86874a8.1866296 8.2177453 0 0 0 -8.18428 8.21805v114.53264a8.1866296 8.2177453 0 0 0 8.18428 8.21806h119.09546a8.1866296 8.2177453 0 0 0 8.18693-8.21806v-114.53264a8.1866296 8.2177453 0 0 0 -8.18693-8.21805zm.00055 15.84476h55.48818v3.98447l-22.21925 22.3037a3.1115881 3.1234146 0 0 0 0 4.4172 3.1115881 3.1234146 0 0 0 4.401 0l17.81825-17.88597v11.99335c-8.40834 1.94792-14.71368 9.53156-14.71368 18.5481v22.38831c0 9.01654 6.30534 16.60018 14.71368 18.5481v9.79672l-17.81825-17.88597a3.1115881 3.1234146 0 0 0 -2.16019-.91548 3.1115881 3.1234146 0 0 0 -.0774 0 3.1115881 3.1234146 0 0 0 -2.16339.91548 3.1115881 3.1234146 0 0 0 0 4.41561l22.21925 22.30528v3.9781h-55.48819zm63.60884 0h55.48712v106.907h-55.48713v-3.97862l22.21871-22.30476a3.1115881 3.1234146 0 0 0 0-4.41561 3.1115881 3.1234146 0 0 0 -4.401 0l-17.81771 17.88543v-9.70676c8.60069-1.80201 15.0981-9.48354 15.0981-18.63752v-22.38831c0-9.15399-6.49741-16.83551-15.0981-18.63751v-11.9034l17.81771 17.88543a3.1115881 3.1234146 0 0 0 4.401 0 3.1115881 3.1234146 0 0 0 0-4.4172l-22.21871-22.30317zm-3.86813 31.62883c6.53821 0 11.68759 5.16897 11.68759 11.73202v22.38831c0 6.56305-5.14939 11.73201-11.68759 11.73201s-11.68757-5.16896-11.68757-11.73201v-22.38831c0-6.56305 5.14937-11.73202 11.68757-11.73202zm.0844 2.541a2.5390353 2.5486856 0 0 0 -2.53934 2.54844v7.67888a2.5390353 2.5486856 0 0 0 2.53934 2.54897 2.5390353 2.5486856 0 0 0 2.5388-2.54897v-7.67888a2.5390353 2.5486856 0 0 0 -2.5388-2.54844z"
     fill-rule="evenodd"
     transform="translate(253.17277 890.86874)"
     id="path2"
     style="fill:#545b62;fill-opacity:1" />
</svg>
