<svg height="512" viewBox="0 0 135.46666 135.46666" width="512" xmlns="http://www.w3.org/2000/svg"><g fill="#545b62" transform="translate(253.17277 890.86874)"><path d="m-211.4375-880.83789a4.1325002 4.1325002 0 0 0 -1.8125.42383c-21.88162 10.75082-35.77209 32.85056-35.80664 57.04492-.0346 24.19436 13.79358 46.33266 35.64453 57.14453a4.1325002 4.1325002 0 0 0 5.53711-1.87109 4.1325002 4.1325002 0 0 0 -1.87109-5.53711c-19.07822-9.43992-31.07497-28.68282-31.04493-49.72461.0301-21.04179 12.08035-40.25196 31.18555-49.63867a4.1325002 4.1325002 0 0 0 1.88672-5.53125 4.1325002 4.1325002 0 0 0 -3.71875-2.31055z" fill-rule="evenodd"/><path d="m-225.67188-889.21875a3.123405 3.123405 0 0 0 -2.95507 2.29883 3.123405 3.123405 0 0 0 2.1875 3.83789l17.63281 4.82422-3.63086 17.91406a3.123405 3.123405 0 0 0 2.43945 3.68164 3.123405 3.123405 0 0 0 3.68164-2.43945l4.21289-20.7793a3.1237173 3.1237173 0 0 0 -2.23828-3.63281l-20.44922-5.59375a3.123405 3.123405 0 0 0 -.88086-.11133z"/><path d="m-159.38281-765.48047a4.1325002 4.1325002 0 0 0 1.81054-.42187c21.88162-10.75083 35.7721-32.85252 35.80665-57.04688.0345-24.19436-13.79164-46.33266-35.64258-57.14453a4.1325002 4.1325002 0 0 0 -5.53711 1.87109 4.1325002 4.1325002 0 0 0 1.87109 5.53711c19.07821 9.43992 31.07497 28.68282 31.04492 49.72461-.03 21.04179-12.08229 40.25391-31.1875 49.64063a4.1325002 4.1325002 0 0 0 -1.88672 5.53125 4.1325002 4.1325002 0 0 0 3.72071 2.30859z" fill-rule="evenodd"/><path d="m-161.41406-789.71875a3.1235001 3.1235001 0 0 0 -3.0918 2.50195l-4.21094 20.7793a3.1238125 3.1238125 0 0 0 2.23633 3.63281l20.44922 5.59571a3.1235001 3.1235001 0 0 0 3.83789-2.18946 3.1235001 3.1235001 0 0 0 -2.18945-3.83789l-17.63086-4.82422 3.63086-17.91406a3.1235001 3.1235001 0 0 0 -2.43946-3.68164 3.1235001 3.1235001 0 0 0 -.59179-.0625z"/><path d="m-185.43943-853.32039c-10.48404 0-19.03855 8.55453-19.03855 19.03855v22.38799c0 10.48399 8.55451 19.03852 19.03855 19.03852 10.484 0 19.03853-8.55453 19.03853-19.03852v-22.38799c0-10.48404-8.55453-19.03855-19.03853-19.03855zm0 7.30644c6.56305 0 11.73212 5.16906 11.73212 11.73211v22.38799c0 6.56305-5.16909 11.7321-11.73212 11.7321-6.56307 0-11.73212-5.16905-11.73212-11.7321v-22.38799c0-6.56305 5.16905-11.73211 11.73212-11.73211z" fill-rule="evenodd"/><path d="m-185.35572-842.5213c-2.27164-.00012-4.1461 1.87642-4.146 4.14806v7.67809c-.00011 2.27164 1.87436 4.14818 4.146 4.14806 2.27162.00008 4.14869-1.87644 4.14858-4.14806v-7.67809c.0001-2.27161-1.87696-4.14814-4.14858-4.14806z"/><path d="m-185.5862-875.25574c-1.05348.0354-2.05943.44876-2.83393 1.16582l-17.37672 16.08016c-1.77986 1.64837-1.89553 4.45148-.25787 6.24199 1.63744 1.79079 4.43758 1.90901 6.21875.262l14.39653-13.32218 14.39654 13.32218c1.78118 1.64702 4.5813 1.5288 6.21874-.262 1.63691-1.79129 1.52077-4.59444-.25993-6.24199l-17.37465-16.08016c-.84861-.78564-1.97318-1.20418-3.12746-1.16582z"/><path d="m-202.99806-795.82803c-1.12724.0475-2.23794.52467-3.05666 1.42007-1.63766 1.79051-1.52199 4.59363.25787 6.24199l17.37672 16.08016c.7745.71706 1.78045 1.13042 2.83393 1.16582 1.15428.0384 2.27885-.38018 3.12746-1.16582l17.37465-16.08016c1.7807-1.64754 1.89684-4.4507.25993-6.24199-1.63744-1.79081-4.43756-1.90902-6.21874-.262l-14.39654 13.32218-14.39653-13.32218c-.89058-.8235-2.03485-1.20561-3.16209-1.15807z"/></g></svg>