<?xml version="1.0" encoding="UTF-8" standalone="no"?>
<svg
   xmlns:dc="http://purl.org/dc/elements/1.1/"
   xmlns:cc="http://creativecommons.org/ns#"
   xmlns:rdf="http://www.w3.org/1999/02/22-rdf-syntax-ns#"
   xmlns:svg="http://www.w3.org/2000/svg"
   xmlns="http://www.w3.org/2000/svg"
   xmlns:sodipodi="http://sodipodi.sourceforge.net/DTD/sodipodi-0.dtd"
   xmlns:inkscape="http://www.inkscape.org/namespaces/inkscape"
   height="512"
   viewBox="0 0 135.46666 135.46666"
   width="512"
   version="1.1"
   id="svg867"
   sodipodi:docname="enabledScroll.svg"
   inkscape:version="1.0 (4035a4fb49, 2020-05-01)">
  <metadata
     id="metadata873">
    <rdf:RDF>
      <cc:Work
         rdf:about="">
        <dc:format>image/svg+xml</dc:format>
        <dc:type
           rdf:resource="http://purl.org/dc/dcmitype/StillImage" />
        <dc:title></dc:title>
      </cc:Work>
    </rdf:RDF>
  </metadata>
  <defs
     id="defs871" />
  <sodipodi:namedview
     inkscape:document-rotation="0"
     pagecolor="#ffffff"
     bordercolor="#666666"
     borderopacity="1"
     objecttolerance="10"
     gridtolerance="10"
     guidetolerance="10"
     inkscape:pageopacity="0"
     inkscape:pageshadow="2"
     inkscape:window-width="1714"
     inkscape:window-height="1377"
     id="namedview869"
     showgrid="false"
     inkscape:zoom="1.2128906"
     inkscape:cx="195.46115"
     inkscape:cy="242.09752"
     inkscape:window-x="0"
     inkscape:window-y="28"
     inkscape:window-maximized="1"
     inkscape:current-layer="g865" />
  <g
     fill="#545b62"
     transform="translate(253.17277,890.86874)"
     id="g865">
    <path
       id="path857"
       style="stroke-width:0.999997"
       d="m -185.6036,-890.86602 c -1.18234,0.0397 -2.31135,0.50365 -3.18059,1.30841 l -19.50223,18.04708 c -1.99757,1.85 -2.12738,4.996 -0.2894,7.00552 1.83773,2.00984 4.98037,2.14252 6.97941,0.29405 l 16.15753,-14.95175 16.15751,14.95175 c 1.99905,1.84848 5.14169,1.7158 6.97942,-0.29405 1.83714,-2.0104 1.70678,-5.15644 -0.29173,-7.00552 l -19.49992,-18.04708 c -0.95241,-0.88174 -2.21452,-1.35147 -3.51,-1.30841 z m 0.16472,33.85313 c -11.76645,0 -21.36744,9.60101 -21.36744,21.36742 v 25.12684 c 0,11.76639 9.60099,21.36743 21.36744,21.36743 11.76639,0 21.36742,-9.60104 21.36742,-21.36743 v -25.12684 c 0,-11.76644 -9.60103,-21.36742 -21.36742,-21.36742 z m 0,8.20025 c 7.36583,0 13.16716,5.80133 13.16716,13.16717 v 25.12684 c 0,7.36583 -5.80135,13.16717 -13.16716,13.16717 -7.36588,0 -13.16719,-5.80134 -13.16719,-13.16717 v -25.12684 c 0,-7.36584 5.80131,-13.16717 13.16719,-13.16717 z m 0.0939,3.92006 c -2.5495,-1.3e-4 -4.65325,2.10594 -4.65314,4.65545 v 8.61727 c -1.2e-4,2.5495 2.10364,4.6556 4.65314,4.65546 2.54948,9e-5 4.65617,-2.10598 4.65604,-4.65546 v -8.61727 c 1.1e-4,-2.54947 -2.10656,-4.65554 -4.65604,-4.65545 z m -19.80033,61.53301 c -1.26512,0.0533 -2.51169,0.58884 -3.43055,1.59377 -1.83798,2.00952 -1.70817,5.15553 0.2894,7.00551 l 19.50223,18.04708 c 0.86924,0.80478 1.99825,1.26869 3.18059,1.30841 1.29548,0.0431 2.55759,-0.42667 3.51,-1.30841 l 19.49992,-18.04708 c 1.99851,-1.84907 2.12887,-4.99512 0.29173,-7.00551 -1.83773,-2.00986 -4.98037,-2.14253 -6.97942,-0.29406 l -16.15751,14.95175 -16.15753,-14.95175 c -0.99951,-0.92422 -2.28375,-1.35307 -3.54886,-1.29971 z" />
  </g>
</svg>
